# xmcd
#
# Track frame offsets:
#	150
#	18054
#	33739
#
# Disc length: 745 seconds
#
# Revision: 0
# Processed by: cddbd v1.4PL0 Copyright (c) Steve Scherf et al.
# Submitted via: audiograbber 1.80.04
#
DISCID=1902e703
DTITLE=Fellow - Fellow
DYEAR=1900
DGENRE=
TTITLE0=It's Me
TTITLE1=Woman
TTITLE2=This Is My Land
EXTD=
EXTT0=
EXTT1=
EXTT2=
PLAYORDER=
